<?xml version="1.0" encoding="UTF-8" standalone="no"?>
<svg width="35px" height="48px" viewBox="0 0 35 48" version="1.1" xmlns="http://www.w3.org/2000/svg" xmlns:xlink="http://www.w3.org/1999/xlink" xmlns:sketch="http://www.bohemiancoding.com/sketch/ns">
    <!-- Generator: Sketch 3.5.1 (25234) - http://www.bohemiancoding.com/sketch -->
    <title>cd-icon-location</title>
    <desc>Created with Sketch.</desc>
    <defs></defs>
    <g id="Page-1" stroke="none" stroke-width="1" fill="none" fill-rule="evenodd" sketch:type="MSPage">
        <g id="cd-icon-location" sketch:type="MSLayerGroup">
            <ellipse id="Oval" opacity="0.19" fill="#000000" sketch:type="MSShapeGroup" cx="17.5" cy="44.7" rx="10.4" ry="3.3"></ellipse>
            <path d="M17.5,0 C8.1,0 0.5,7.5 0.5,16.8 C0.5,26.1 17.5,44.8 17.5,44.8 C17.5,44.8 34.5,26.1 34.5,16.8 C34.5,7.5 26.9,0 17.5,0 L17.5,0 Z" id="Shape" fill="#2A84AB" sketch:type="MSShapeGroup"></path>
            <circle id="Oval" fill="#7CBBD0" sketch:type="MSShapeGroup" cx="17.5" cy="15.5" r="4.2"></circle>
            <path d="M17.5,12.2 C19.7,12.2 21.4,13.8 21.7,16 C21.7,15.8 21.8,15.7 21.8,15.5 C21.8,13.2 19.9,11.3 17.6,11.3 C15.3,11.3 13.4,13.2 13.4,15.5 C13.4,15.7 13.4,15.8 13.5,16 C13.6,13.9 15.3,12.2 17.5,12.2 L17.5,12.2 Z" id="Shape" fill="#1B3A6F" sketch:type="MSShapeGroup"></path>
        </g>
    </g>
</svg>