<?xml version="1.0" encoding="UTF-8" standalone="no"?>
<svg width="157px" height="192px" viewBox="0 0 157 192" version="1.1" xmlns="http://www.w3.org/2000/svg" xmlns:xlink="http://www.w3.org/1999/xlink" xmlns:sketch="http://www.bohemiancoding.com/sketch/ns">
    <!-- Generator: Sketch 3.4.4 (17249) - http://www.bohemiancoding.com/sketch -->
    <title>home-caro</title>
    <desc>Created with Sketch.</desc>
    <defs></defs>
    <g id="Page-1" stroke="none" stroke-width="1" fill="none" fill-rule="evenodd" sketch:type="MSPage">
        <g id="home-caro" sketch:type="MSLayerGroup" fill="#4990E2">
            <g id="Group" sketch:type="MSShapeGroup">
                <path d="M58.112,56.613 C49.425,57.277 46.778,66.894 48.533,74.105 C49.048,76.223 52.384,75.77 52.323,73.592 C52.196,69.071 53.08,63.09 58.366,62.014 C63.635,60.942 65.019,68.819 65.136,72.25 C65.255,75.73 70.559,75.753 70.553,72.25 C70.539,65.002 66.754,55.952 58.112,56.613 L58.112,56.613 Z" id="Shape"></path>
                <path d="M104.673,60.974 C102.736,58.072 99.397,56.121 95.97,55.617 C92.289,55.075 88.593,56.02 86.351,59.166 C83.508,63.157 84.643,68.496 86.254,72.725 C87.065,74.855 90.206,74.059 89.701,71.775 C88.68,67.15 88.844,60.241 94.808,61.166 C96.674,61.455 98.637,62.415 99.696,63.882 C101.071,65.787 100.154,67.767 100.609,70.153 C100.868,71.513 102.731,72.235 103.86,71.475 C107.362,69.12 106.766,64.11 104.673,60.974 L104.673,60.974 Z" id="Shape"></path>
                <path d="M88.799,7.265 C87.122,7.597 86.89,10.08 88.329,10.856 C88.539,10.969 88.766,11.068 88.985,11.171 C85.681,12.239 82.995,14.945 82.193,18.383 C80.984,23.563 84.942,26.841 89.844,26.672 C95.348,26.482 101.504,22.877 101.326,16.776 C101.157,10.898 94.315,6.171 88.799,7.265 L88.799,7.265 Z M89.844,21.833 C83.607,22.485 87.572,14.195 90.974,12.97 C91.305,12.851 91.505,12.59 91.632,12.293 C93.65,13.14 95.538,14.162 96.24,16.46 C97.293,19.907 92.315,21.575 89.844,21.833 L89.844,21.833 Z" id="Shape"></path>
                <path d="M52.621,12.873 C51.806,13.053 51.509,13.671 51.476,14.317 C45.475,23 48.705,30.067 59.257,24.039 C70.874,17.401 62.604,10.666 52.621,12.873 L52.621,12.873 Z M54.009,16.353 C62.148,17.381 50.975,26.326 54.009,16.353 L54.009,16.353 L54.009,16.353 Z" id="Shape"></path>
                <path d="M94.563,127.287 C94.54,126.261 93.81,124.977 92.686,124.82 C83.122,123.494 73.986,122.49 64.512,124.941 C63.476,125.21 62.714,126.219 62.727,127.287 C62.795,133.128 63.196,138.927 62.96,144.736 C62.799,144.741 62.634,144.724 62.473,144.73 C59.359,144.853 58.911,149.009 61.758,150.015 C62.02,150.108 62.31,150.139 62.577,150.22 C62.564,151.382 64.179,151.638 64.796,150.774 C68.587,151.476 72.716,151.367 76.432,151.498 C82.053,151.694 87.729,151.809 93.348,151.54 C94.813,151.47 96.182,150.33 96.122,148.765 C95.853,141.586 94.728,134.473 94.563,127.287 L94.563,127.287 Z M78.387,145.699 C74.354,145.591 70.224,144.969 66.161,144.772 C66.997,139.653 67.39,134.441 67.525,129.276 C74.945,127.768 82.08,128.431 89.538,129.498 C89.745,134.979 90.311,140.436 90.489,145.919 C86.457,145.809 82.418,145.807 78.387,145.699 L78.387,145.699 Z" id="Shape"></path>
                <path d="M153.755,104.328 C149.567,104.115 145.833,102.868 141.803,102.802 C141.797,99.971 141.791,97.141 141.759,94.31 C141.737,92.426 142.087,89.417 140.879,87.64 C140.718,87.2 140.416,86.892 140.045,86.687 C140.031,86.679 140.029,86.663 140.017,86.655 C140.022,86.663 140.026,86.671 140.031,86.679 C139.39,86.334 138.59,86.334 137.948,86.679 C137.953,86.671 137.958,86.663 137.963,86.655 C137.949,86.663 137.947,86.679 137.935,86.687 C137.568,86.889 137.269,87.188 137.106,87.618 C131.373,90.457 126.382,95.182 125.655,101.821 C125.464,103.573 125.632,105.301 126.027,106.979 C122.797,108.13 119.631,110.831 116.975,112.555 C116.51,112.857 116.062,113.185 115.6,113.493 C115.171,112.721 113.936,112.784 113.872,113.863 C113.856,114.139 113.881,114.396 113.874,114.668 C111.047,116.599 108.263,118.591 105.584,120.729 C105.471,120.82 105.411,120.93 105.336,121.036 C100.554,115.905 94.511,112.092 87.323,110.264 C87.517,107.961 87.826,105.488 87.788,103.107 C98.698,103.977 111.354,103.711 115.088,96.327 C122.762,81.144 119.721,61.8 119.516,45.405 C119.493,43.528 118.01,42.131 116.171,42.06 C105.65,41.651 95.147,41.961 84.645,42.406 C84.822,39.205 84.964,36.001 85.029,32.802 C99.141,37.693 118.483,25.718 111.191,9.44 C104.534,-5.422 81.869,-1.064 74.328,10.991 C72.913,8.134 70.379,5.407 68.265,3.666 C65.65,1.513 62.599,0.221 59.206,0.046 C52.896,-0.279 47.212,4.065 43.604,8.847 C39.985,13.644 37.596,19.752 38.866,25.799 C40.298,32.618 47.463,35.841 53.891,35.254 C57.481,34.927 60.88,34.079 64.262,32.996 C64.413,35.669 64.372,38.345 63.541,40.93 C62.949,42.773 65.667,43.852 66.614,42.226 C68.624,38.778 68.596,34.511 68.912,30.638 C69.125,28.027 65.426,27.64 64.387,29.425 C58.334,30.557 49.618,31.599 45.46,27.018 C42.816,24.106 44.09,18.475 46.115,14.524 C48.394,10.076 52.551,6.097 57.577,5.17 C59.893,4.743 62.288,5.576 64.262,6.863 C65.638,7.761 66.84,9.067 67.831,10.366 C69.193,12.151 69.995,14.592 71.665,16.082 C72.415,16.751 73.534,16.758 74.366,16.31 C75.055,16.414 75.775,16.191 76.149,15.459 C80.817,6.307 96.191,1.639 104.297,8.756 C110.009,13.771 106.899,22.166 101.613,25.793 C96.876,29.045 90.485,29.242 85.385,26.851 C84.424,26.4 83.519,26.529 82.773,26.926 C81.491,26.852 80.155,27.628 80.135,29.297 C80.082,33.715 80.345,38.155 80.589,42.583 C66.505,43.217 52.423,43.968 38.315,43.472 C35.157,43.361 34.383,46.934 35.929,48.849 C29.381,61.077 32.754,79.973 38.896,91.519 C44.311,101.697 59.86,101.154 70.51,101.516 C68.174,103.279 69.095,107.137 70.293,109.702 C62.474,111.198 55.83,115.218 50.659,120.71 C49.626,119.139 47.547,118.429 45.981,117.52 C43.375,116.008 40.857,114.343 38.302,112.747 C37.668,112.35 34.34,110.104 32.22,109.866 C33.565,106.996 34.226,103.904 33.435,100.821 C31.281,92.425 19.346,92.872 12.809,93.597 C11.002,93.797 9.586,95.245 10.091,97.166 C11.929,104.158 9.656,109.882 2.627,112.358 C-0.074,113.309 0.166,116.81 1.974,117.915 C1.463,123.078 3.193,128.367 9.588,127.98 C13.965,127.715 18.155,125.279 21.735,122.356 C27.342,126.492 38.439,134.061 42.502,133.182 C39.339,140.512 38.044,148.757 39.071,156.821 C39.211,157.921 39.975,158.486 40.78,158.604 C39.534,160.633 40.206,163.723 40.347,165.995 C40.445,167.58 40.613,169.166 40.88,170.73 C27.732,170.446 13.793,172.68 13.845,187.695 C13.853,189.788 15.738,190.902 17.633,190.581 C19.792,190.214 21.96,190 24.127,189.79 C24.13,189.986 24.106,190.182 24.113,190.38 C24.15,191.393 25.594,191.374 25.67,190.38 C25.69,190.117 25.758,189.851 25.788,189.588 C28.646,189.357 31.509,189.226 34.375,189.166 C34.549,190.658 36.8,190.649 36.908,189.11 C38.8,189.094 40.692,189.096 42.586,189.117 C42.725,190.429 44.602,190.434 44.77,189.142 C47.1,189.177 49.43,189.221 51.759,189.259 C51.776,189.302 51.783,189.347 51.8,189.391 C52.325,190.728 54.019,190.448 54.277,189.294 C55.668,189.311 57.059,189.328 58.449,189.328 C60.368,189.329 61.852,187.425 61.318,185.561 C59.025,177.555 58.865,169.329 58.444,161.084 C66.578,161.676 74.711,162.168 82.906,162.296 C88.135,162.378 94.612,162.669 100.891,162.139 C100.62,170.22 100.376,178.317 101.37,186.352 C101.553,187.828 102.469,189.063 104.089,189.07 C116.169,189.125 128.25,189.176 140.332,189.216 C141.644,189.22 142.704,188.332 143.093,187.113 C148.669,169.614 130.364,168.902 116.344,169.402 C115.929,167.526 115.726,165.666 115.689,163.738 C115.654,161.911 115.894,160.087 115.528,158.302 C116.108,157.982 116.705,157.683 117.241,157.312 C118.345,156.548 118.426,155.001 117.7,154.085 C117.843,153.716 117.914,153.287 117.888,152.793 C117.57,146.435 116.202,140.32 113.936,134.76 C117.415,133.224 121.239,131.353 124.877,129.168 C124.929,129.177 124.981,129.21 125.032,129.217 C126.377,129.405 127.223,128.569 127.386,127.576 C130.772,125.324 133.88,122.782 136.188,119.901 C139.259,121.531 142.715,122.333 146.229,121.68 C152.651,120.488 155.604,113.646 156.475,107.902 C156.759,106.044 155.742,104.429 153.755,104.328 L153.755,104.328 Z M24.528,183.343 C24.514,183.469 24.506,183.594 24.492,183.721 C23.059,183.855 21.626,183.964 20.195,184.162 C20.88,181.388 22.603,179.538 24.939,178.299 C24.766,179.974 24.707,181.669 24.528,183.343 L24.528,183.343 Z M34.084,183.131 C31.693,183.19 29.304,183.299 26.918,183.472 C27.337,181.399 27.58,179.327 27.358,177.277 C29.447,176.611 31.835,176.264 34.351,176.122 C34.002,178.368 33.985,180.744 34.084,183.131 L34.084,183.131 Z M37.173,183.061 C37.271,180.671 37.253,178.292 36.894,176.044 C38.654,176.027 40.434,176.06 42.2,176.152 C42.185,177.556 42.277,178.972 42.303,180.361 C42.32,181.263 42.355,182.166 42.38,183.067 C40.643,183.049 38.907,183.046 37.173,183.061 L37.173,183.061 Z M135.11,177.2 C137.199,178.484 138.385,180.459 137.994,183.497 C136.597,183.502 135.198,183.508 133.802,183.514 C134.528,181.592 135.062,179.317 135.11,177.2 L135.11,177.2 Z M131.407,175.75 C131.685,175.814 131.939,175.899 132.205,175.975 C132.183,176.918 132.284,177.875 132.306,178.84 C132.342,180.432 132.161,181.994 131.778,183.522 C131.366,183.524 130.954,183.525 130.543,183.527 C131.048,180.978 131.391,178.326 131.407,175.75 L131.407,175.75 Z M124.297,179.169 C124.355,177.798 124.48,176.399 124.468,175.016 C125.568,175.028 126.636,175.085 127.678,175.171 C127.526,177.942 127.62,180.746 127.45,183.538 C126.338,183.543 125.225,183.547 124.113,183.552 C124.175,182.091 124.236,180.63 124.297,179.169 L124.297,179.169 Z M118.787,175.164 C119.616,175.111 120.456,175.084 121.292,175.052 C121.283,176.425 121.406,177.809 121.464,179.169 C121.525,180.633 121.587,182.098 121.649,183.562 C120.273,183.568 118.896,183.574 117.52,183.58 C118.347,180.786 118.562,177.994 118.787,175.164 L118.787,175.164 Z M116.077,175.359 C116.056,178.054 115.684,180.754 114.923,183.323 C114.891,183.428 114.96,183.492 114.953,183.59 C114.849,183.59 114.742,183.591 114.638,183.591 C114.8,180.897 114.753,178.023 113.953,175.545 C114.643,175.481 115.354,175.42 116.077,175.359 L116.077,175.359 Z M84.91,95.601 C85.061,94.088 85.117,92.562 85.195,91.043 C85.225,90.47 85.269,89.897 85.31,89.323 C89.289,89.498 93.594,89.559 97.725,89.219 C97.923,90.442 98.291,91.689 98.497,92.708 C98.702,93.728 98.971,94.721 99.222,95.721 C94.476,96.054 89.64,95.807 84.91,95.601 L84.91,95.601 Z M103.17,95.228 C103.149,94.38 103.088,93.531 103.015,92.667 C102.908,91.406 102.922,89.948 102.765,88.561 C106.266,87.881 109.449,86.752 111.915,84.9 C111.979,84.852 111.988,84.777 112.047,84.725 C111.01,89.711 108.689,93.963 103.17,95.228 L103.17,95.228 Z M40.519,50.084 C64.645,51.061 88.742,48.096 112.885,48.688 C113.055,57.728 113.394,66.739 112.982,75.789 C112.893,77.747 112.773,79.799 112.53,81.814 C112.19,81.259 111.671,80.808 110.8,80.777 C99.843,80.38 88.452,83.228 77.241,83.087 C65.317,82.938 53.356,82.343 41.48,81.231 C38.027,71.239 38.201,57.428 40.519,50.084 L40.519,50.084 Z M73.451,101.653 C73.503,101.657 73.561,101.659 73.612,101.663 C75.856,101.819 79.101,102.244 82.792,102.64 C82.706,104.883 82.984,107.231 83.194,109.454 C80.855,109.125 78.442,108.938 75.897,109.024 C74.955,109.056 74.052,109.185 73.137,109.287 C72.895,108.576 72.695,107.892 72.601,107.134 C72.56,106.687 72.548,106.239 72.566,105.79 C72.732,105.404 72.748,105.187 72.648,105.1 C74.135,104.503 74.213,102.722 73.451,101.653 L73.451,101.653 Z M51.75,92.828 C48.097,92.015 45.351,89.232 43.327,85.44 C46.401,85.904 49.475,86.335 52.552,86.737 C52.568,87.78 52.725,88.843 52.838,89.908 C52.954,90.996 53.146,92.056 53.385,93.105 C52.847,92.998 52.283,92.947 51.75,92.828 L51.75,92.828 Z M64.572,94.539 C64.568,94.55 64.571,94.56 64.567,94.571 C61.899,94.34 59.244,94.058 56.639,93.653 C56.419,92.108 56.274,90.556 56.253,88.978 C56.245,88.36 56.264,87.769 56.275,87.187 C59.308,87.552 62.347,87.86 65.389,88.136 C65.404,88.49 65.421,88.847 65.424,89.215 C65.436,91.05 65.225,92.818 64.572,94.539 L64.572,94.539 Z M68.791,94.879 C69.569,93.059 70.261,90.689 70.394,88.504 C72.673,88.664 74.95,88.846 77.24,88.931 C78.069,88.962 79.006,89.012 79.923,89.059 C79.946,89.441 79.96,89.813 79.981,90.203 C80.07,91.931 80.129,93.671 80.293,95.395 C76.489,95.248 72.666,95.122 68.791,94.879 L68.791,94.879 Z M10.729,123.272 C6.426,124.711 5.106,121.42 4.759,117.793 C13.116,114.437 17.086,107.369 16.101,98.911 C20.616,98.549 26.883,98.559 28.087,102.292 C29.292,106.027 25.423,111.219 23.064,114.032 C19.817,117.904 15.594,121.646 10.729,123.272 L10.729,123.272 Z M23.879,120.486 C24.757,119.673 25.601,118.852 26.369,118.048 C28.002,116.336 29.676,114.3 31.027,112.081 C31.292,112.269 31.587,112.376 31.892,112.315 C31.543,112.335 31.396,112.132 32.107,112.93 C32.689,113.583 33.41,114.056 34.11,114.575 C35.09,115.298 36.053,116.046 37.018,116.789 C35.302,119.204 33.981,122.054 32.596,124.712 C29.643,123.404 26.696,122.044 23.879,120.486 L23.879,120.486 Z M37.275,126.76 C36.74,126.532 36.195,126.282 35.656,126.051 C36.329,125.093 37.014,124.143 37.667,123.171 C38.515,121.908 39.457,120.634 40.299,119.324 C42.342,121.008 45.296,123.6 47.885,123.973 C46.367,125.966 44.988,128.077 43.827,130.321 C42.843,128.352 38.787,127.403 37.275,126.76 L37.275,126.76 Z M44.982,183.11 C45.006,182.194 45.043,181.278 45.06,180.361 C45.085,179.034 45.176,177.68 45.171,176.337 C46.442,176.425 47.687,176.519 48.873,176.605 C48.978,178.57 49.586,180.537 49.962,182.456 C50.012,182.71 50.074,182.955 50.125,183.208 C48.409,183.168 46.695,183.14 44.982,183.11 L44.982,183.11 Z M53.654,183.284 C53.465,181.045 53.162,178.843 52.496,176.833 C53.247,176.867 53.964,176.89 54.625,176.891 C54.64,179.022 54.742,181.16 54.992,183.313 C54.545,183.304 54.1,183.293 53.654,183.284 L53.654,183.284 Z M54.763,171.578 C51.894,171.377 48.526,171.077 44.987,170.882 C44.772,169.26 44.632,167.627 44.571,165.992 C44.502,164.17 44.869,161.889 44.42,160.004 C48.172,160.299 51.92,160.594 55.662,160.878 C55.312,164.484 54.958,168.038 54.763,171.578 L54.763,171.578 Z M82.905,156.415 C69.553,156.491 56.313,155.699 42.966,156.459 C44.803,136.277 53.305,117.122 75.899,115.011 C98.32,112.916 109.888,133.438 111.765,152.792 C111.798,153.131 111.919,153.403 112.031,153.685 C102.353,154.483 92.791,156.357 82.905,156.415 L82.905,156.415 Z M106.487,183.623 C106.153,181.04 105.883,178.46 105.633,175.881 C105.975,176.004 106.338,176.102 106.772,176.096 C107.916,176.078 109.431,175.955 111.139,175.801 C111.363,176.959 111.657,178.104 111.867,179.276 C112.121,180.695 112.244,182.147 112.34,183.6 C110.388,183.607 108.438,183.615 106.487,183.623 L106.487,183.623 Z M106.772,169.759 C106.104,169.765 105.586,169.98 105.136,170.268 C104.925,167.422 104.76,164.567 104.641,161.7 C106.927,161.361 109.141,160.875 111.216,160.196 C111.051,163.293 111.874,166.722 112.857,169.543 C110.583,169.645 108.492,169.744 106.772,169.759 L106.772,169.759 Z M112.705,131.982 C111.229,128.918 109.483,126.038 107.424,123.45 C107.489,123.418 107.557,123.414 107.62,123.37 C109.817,121.867 112.073,120.451 114.347,119.06 C114.741,120.51 115.368,121.896 116.351,123.223 C117.331,124.547 118.764,125.968 120.359,127.109 C117.868,128.825 115.309,130.441 112.705,131.982 L112.705,131.982 Z M124.305,124.213 C122.703,123.408 121.032,122.719 119.613,121.506 C118.373,120.445 117.451,119.075 116.798,117.583 C117.567,117.122 118.33,116.651 119.101,116.193 C121.621,114.698 125.181,113.402 127.794,111.56 C128.907,113.592 130.356,115.454 132.026,117.017 C132.088,117.076 132.165,117.115 132.228,117.172 C129.484,119.369 127.013,121.959 124.305,124.213 L124.305,124.213 Z M144.734,116.248 C141.464,117.038 137.835,114.817 135.55,112.721 C132.608,110.022 130.936,106.369 130.935,102.384 C130.934,98.391 133.297,95.115 136.173,92.496 C136.194,93.154 136.226,93.786 136.22,94.31 C136.174,98.143 136.158,101.975 136.16,105.809 C136.161,107.759 137.956,108.879 139.742,108.538 C143.364,107.847 146.856,108.894 150.399,109.544 C149.579,112.596 148.042,115.448 144.734,116.248 L144.734,116.248 Z" id="Shape"></path>
            </g>
        </g>
    </g>
</svg>